<?xml version="1.0" encoding="UTF-8"?>
<svg id="Layer_1" data-name="Layer 1" xmlns="http://www.w3.org/2000/svg" version="1.1" viewBox="0 0 150 34.1">
  <defs>
    <style>
      .cls-1 {
        fill: #e60000;
      }

      .cls-1, .cls-2 {
        fill-rule: evenodd;
        stroke-width: 0px;
      }

      .cls-2 {
        fill: #000;
      }
    </style>
  </defs>
  <path class="cls-1" d="M4.5,0h141.1c2.5,0,4.5,2,4.5,4.5v19.7c0,2.5-2,4.5-4.5,4.5H12.3v5.4L1.5,23.3c-.9-.9-1.5-2.2-1.5-3.5V4.5C0,2,2,0,4.5,0ZM12.3,25h133.9V3.6H3.9v16.6l8.4,8.4v-3.6Z"/>
  <path class="cls-2" d="M123.2,10.3c1.2,0,2.3.5,3.1,1.4l1.4-2c-1.2-1-2.8-1.5-4.5-1.5-3.6,0-6.8,2.4-6.8,6.2s3.1,6.2,6.8,6.2,3.3-.6,4.5-1.5l-1.4-2c-.8.8-1.9,1.4-3.1,1.4-2.3,0-3.9-1.8-3.9-4s1.6-4,3.9-4ZM114.7,20.2v-10.3c0-.5-.2-1-.7-1.3-.7-.5-1.7-.3-2.2.4-.9,1.3-3.7,5.2-3.7,5.2,0,0-2.8-3.9-3.7-5.2-.5-.7-1.5-.9-2.2-.4-.4.3-.7.8-.7,1.3v10.3h2.5v-7.6s2.1,3.1,2.9,4.1c.6.8,1.8.8,2.3,0,.7-1,2.9-4.1,2.9-4.1v7.6h2.5ZM80.4,9c1.2,1.8,5,7.1,5,7.1v-7.6h2.5v10.4c0,.5-.3,1-.7,1.3-.7.5-1.7.3-2.2-.4-1.2-1.8-4.9-7.1-4.9-7.1v7.6h-2.5v-10.4c0-.5.3-1,.7-1.3.7-.5,1.7-.3,2.2.4ZM134.8,20.5c3.5,0,6.6-2.4,6.6-6.2s-3-6.2-6.6-6.2-6.6,2.4-6.6,6.2,3,6.2,6.6,6.2ZM138.6,14.3c0-2.2-1.5-4-3.8-4s-3.8,1.8-3.8,4,1.5,4,3.8,4,3.8-1.8,3.8-4ZM100.8,20.2s-3.3-8.1-4.4-10.8c-.3-.9-1-1.3-1.8-1.3-.8,0-1.4.4-1.8,1.3-1.1,2.7-4.4,10.8-4.4,10.8h2.7l1.1-2.7h4.8l1.1,2.7h2.7ZM96.3,15.5l-1.6-4.1-1.6,4.1h3.2ZM17.2,20.2c2.1,0,3.3-1.5,3.3-3.2s-1.2-2.8-2.8-2.9c1.2-.3,2.2-1.5,2.2-2.8s-1.4-2.9-3.3-2.9h-5.7c-.6,0-1,.4-1,1v9.8c0,.6.4,1,1,1h6.4ZM12.3,13.2h3.3c.9,0,1.5-.6,1.5-1.3s-.6-1.3-1.5-1.3h-3.3v2.7ZM16.1,15.2c1,0,1.6.6,1.6,1.4s-.6,1.4-1.6,1.4h-3.9v-2.9h3.9ZM41.7,16s-3.7-5.3-5-7.1c-.5-.7-1.5-.9-2.2-.4-.4.3-.7.8-.7,1.3v10.4h2.5v-7.6s3.7,5.3,4.9,7.1c.5.7,1.5.9,2.2.4.4-.3.7-.8.7-1.3v-10.4h-2.5v7.6ZM72.5,20.2h-2.6v-11.8h2.6v11.8ZM57.1,14.3c0,3.9-2.9,6-6.1,6h-3.3c-.6,0-1-.4-1-1v-9.8c0-.6.4-1,1-1h3.4c3.3,0,6.1,1.9,6.1,5.9ZM50.5,10.5c1.8,0,3.9.9,3.9,3.7s-1.8,3.8-3.9,3.8h-1.3v-7.6h1.3ZM28.7,9.5c1.1,2.7,4.4,10.8,4.4,10.8h-2.7l-1.1-2.7h-4.8l-1.1,2.7h-2.7s3.3-8.1,4.4-10.8c.3-.9,1-1.3,1.8-1.3s1.4.4,1.8,1.3ZM26.9,11.4l1.6,4.1h-3.2l1.6-4.1ZM64.7,9.5c1.1,2.7,4.4,10.8,4.4,10.8h-2.7l-1.1-2.7h-4.8l-1.1,2.7h-2.7s3.3-8.1,4.4-10.8c.3-.9,1-1.3,1.8-1.3.8,0,1.4.4,1.8,1.3ZM62.9,11.4l1.6,4.1h-3.2l1.6-4.1Z"/>
</svg>