<?xml version="1.0" encoding="utf-8"?>
<!-- Generator: Adobe Illustrator 20.1.0, SVG Export Plug-In . SVG Version: 6.00 Build 0)  -->
<svg version="1.1" id="Layer_1" xmlns="http://www.w3.org/2000/svg" xmlns:xlink="http://www.w3.org/1999/xlink" x="0px" y="0px"
	 viewBox="0 0 300 120" style="enable-background:new 0 0 300 120;" xml:space="preserve">
<style type="text/css">
	.st0{fill:#1F70C1;}
</style>
<path class="st0" d="M0,0v8.2h58.4V0H0z M66.7,0v8.2h83.2c0,0-8.5-8.2-19.8-8.2H66.7z M166.2,0v8.2h50.3l-3-8.2H166.2z M252.6,0
	l-3,8.2h49.9V0H252.6z M0,16v8.2h58.4V16H0z M66.7,16v8.2h92.9c0,0-1.1-6.3-3-8.2H66.7z M166.2,16v8.2h55.9l-2.8-8.2H166.2z
	 M246.7,16l-2.8,8.2h55.6V16H246.7z M16.8,31.9v8.2h25.3v-8.2H16.8z M83.4,31.9v8.2h25.3v-8.2H83.4z M133.3,31.9v8.2h25.3
	c0,0,1.6-4.3,1.6-8.2H133.3z M183,31.9v8.2h44.8l-3-8.2H183z M241.2,31.9l-3,8.2h45.1v-8.2H241.2z M16.8,47.9v8.2h25.3v-8.2H16.8z
	 M83.4,47.9v8.2H148c0,0,5.4-4.2,7.1-8.2H83.4z M183,47.9v8.2h25.3v-4.6l1.6,4.6h46.3l1.7-4.6v4.6h25.3v-8.2h-47.5l-2.5,7l-2.5-7
	H183z M16.8,63.9v8.2h25.3v-8.2H16.8z M83.4,63.9v8.2h71.7c-1.7-4-7.1-8.2-7.1-8.2H83.4z M183,63.9v8.2h25.3v-8.2H183z M212.9,63.9
	l3.1,8.2h34.7l2.9-8.2H212.9z M257.9,63.9v8.2h25.3v-8.2H257.9z M16.8,79.8v8.2h25.3v-8.2H16.8z M83.4,79.8v8.2h25.3v-8.2H83.4z
	 M133.3,79.8v8.2h26.9c0-3.9-1.6-8.2-1.6-8.2H133.3z M183,79.8v8.2h25.3v-8.2H183z M218.6,79.8l3,8.2h23.3l3-8.2H218.6z M257.9,79.8
	v8.2h25.3v-8.2H257.9z M0.5,95.8v8.2h58.4v-8.2H0.5z M66.7,95.8v8.2h89.9c1.9-1.9,3-8.2,3-8.2H66.7z M166.7,95.8v8.2h41.6v-8.2
	H166.7z M224.4,95.8l3,8.2h11.8l2.9-8.2H224.4z M257.9,95.8v8.2H300v-8.2H257.9z M0.5,111.8v8.2h58.4v-8.2H0.5z M66.7,111.8v8.2
	h63.5c11.3,0,19.8-8.2,19.8-8.2H66.7z M166.7,111.8v8.2h41.6v-8.2H166.7z M230.1,111.8l2.9,8.2l0.5,0l3-8.2H230.1z M257.9,111.8v8.2
	H300v-8.2H257.9z"/>
</svg>
