<?xml version="1.0" encoding="utf-8"?>
<!-- Generator: Adobe Illustrator 20.1.0, SVG Export Plug-In . SVG Version: 6.00 Build 0)  -->
<svg version="1.1" id="Layer_1" xmlns="http://www.w3.org/2000/svg" xmlns:xlink="http://www.w3.org/1999/xlink" x="0px" y="0px"
	 viewBox="0 0 564.4 120" style="enable-background:new 0 0 564.4 120;" xml:space="preserve">
<style type="text/css">
	.st0{fill:#737373;}
	.st1{fill:#F25022;}
	.st2{fill:#7FBA00;}
	.st3{fill:#00A4EF;}
	.st4{fill:#FFB900;}
</style>
<title>Microsoft Logo</title>
<g>
	<g>
		<path class="st0" d="M198.3,68.6l-3.3,9.5h-0.3c-0.6-2.1-1.6-5.4-3.3-9.3l-18-45.1h-17.6v71.9h11.6V51.2c0-2.8,0-6-0.1-9.9
			c-0.1-2-0.3-3.4-0.4-4.6h0.3c0.6,2.8,1.2,4.8,1.7,6.1l21.6,52.5h8.2l21.4-52.9c0.5-1.2,0.9-3.6,1.4-5.7h0.3
			c-0.3,5.3-0.5,10-0.6,12.9v45.6h12.4V23.5h-16.9L198.3,68.6z M245.4,43.8h12.1v51.5h-12.1V43.8z M251.5,22c-2,0-3.7,0.7-5.1,2
			c-1.4,1.3-2.1,3-2.1,5c0,2,0.7,3.6,2.1,4.9c1.4,1.3,3.1,2,5.1,2s3.8-0.7,5.1-2c1.4-1.3,2.1-3,2.1-4.9s-0.7-3.6-2.1-5
			C255.4,22.8,253.7,22,251.5,22 M300.4,43.3c-2.2-0.5-4.6-0.7-6.8-0.7c-5.5,0-10.5,1.2-14.7,3.6c-4.2,2.4-7.5,5.8-9.7,10
			c-2.2,4.3-3.3,9.2-3.3,14.9c0,4.9,1.1,9.3,3.3,13.3c2.1,3.9,5.1,7.1,9.1,9.2c3.8,2.1,8.3,3.3,13.3,3.3c5.8,0,10.7-1.2,14.6-3.4
			l0.1-0.1V82.1l-0.5,0.4c-1.8,1.3-3.8,2.4-5.9,3.1c-2.1,0.7-4.1,1.1-5.8,1.1c-4.8,0-8.7-1.4-11.3-4.5c-2.8-3-4.2-7.1-4.2-12.2
			c0-5.3,1.4-9.5,4.3-12.6c2.9-3.1,6.7-4.7,11.3-4.7c3.9,0,7.9,1.3,11.5,3.9l0.5,0.4V45.3l-0.1-0.1
			C304.6,44.5,302.8,43.8,300.4,43.3 M340.3,42.9c-3,0-5.8,0.9-8.2,2.9c-2,1.7-3.4,4.1-4.7,7h-0.1v-9h-12.1v51.5h12.1V69
			c0-4.5,0.9-8.2,3-10.9c2-2.8,4.7-4.2,7.8-4.2c1.1,0,2.2,0.3,3.6,0.5c1.3,0.4,2.2,0.7,2.9,1.2l0.5,0.4V43.9l-0.3-0.1
			C344,43.2,342.3,42.9,340.3,42.9 M373.2,42.7c-8.5,0-15.3,2.5-20,7.4c-4.8,4.9-7.2,11.7-7.2,20.3c0,8,2.4,14.5,7.1,19.3
			c4.7,4.7,11,7.1,18.9,7.1c8.3,0,14.9-2.5,19.6-7.5c4.8-5,7.2-11.7,7.2-20c0-8.2-2.2-14.7-6.8-19.4C387.6,45,381.2,42.7,373.2,42.7
			 M382.9,82.3c-2.2,2.9-5.8,4.3-10.1,4.3s-7.9-1.4-10.4-4.5c-2.5-2.9-3.7-7.1-3.7-12.4c0-5.5,1.3-9.7,3.7-12.7
			c2.5-3,6-4.5,10.3-4.5c4.3,0,7.6,1.4,10,4.3c2.4,2.9,3.7,7.1,3.7,12.6C386.2,75,385.2,79.4,382.9,82.3 M425.8,65.2
			c-3.8-1.6-6.2-2.8-7.3-3.8c-0.9-0.9-1.4-2.2-1.4-3.9c0-1.4,0.6-2.8,2-3.7c1.4-0.9,3-1.4,5.3-1.4c2,0,4.2,0.4,6.2,0.9
			c2,0.6,3.9,1.4,5.4,2.5l0.5,0.4V44.8l-0.3-0.1c-1.4-0.6-3.3-1.1-5.5-1.6c-2.2-0.4-4.3-0.6-6-0.6c-5.8,0-10.5,1.4-14.2,4.5
			c-3.7,2.9-5.5,6.8-5.5,11.3c0,2.4,0.4,4.6,1.2,6.3c0.8,1.8,2,3.4,3.7,4.8c1.7,1.3,4.1,2.8,7.4,4.2c2.8,1.2,4.9,2.1,6.2,2.9
			c1.3,0.7,2.1,1.6,2.8,2.2c0.5,0.7,0.7,1.7,0.7,2.9c0,3.4-2.6,5.1-7.9,5.1c-2,0-4.2-0.4-6.7-1.2c-2.5-0.8-4.8-2-6.8-3.4l-0.5-0.4
			v11.8l0.3,0.1c1.8,0.8,3.9,1.4,6.5,2c2.6,0.5,4.9,0.8,7,0.8c6.2,0,11.3-1.4,15-4.5c3.7-3,5.7-6.8,5.7-11.7c0-3.4-0.9-6.5-3-8.8
			C434,69.4,430.6,67,425.8,65.2 M471.5,42.7c-8.5,0-15.3,2.5-20,7.4s-7.2,11.7-7.2,20.3c0,8,2.4,14.5,7.1,19.3
			c4.7,4.7,11,7.1,18.9,7.1c8.3,0,14.9-2.5,19.6-7.5c4.8-5,7.2-11.7,7.2-20c0-8.2-2.2-14.7-6.8-19.4C486,45,479.5,42.7,471.5,42.7
			 M481.1,82.3c-2.2,2.9-5.8,4.3-10.1,4.3c-4.5,0-7.9-1.4-10.4-4.5c-2.5-2.9-3.7-7.1-3.7-12.4c0-5.5,1.3-9.7,3.7-12.7
			c2.5-3,6-4.5,10.3-4.5c4.2,0,7.6,1.4,10,4.3s3.7,7.1,3.7,12.6C484.7,75,483.4,79.4,481.1,82.3"/>
		<path class="st0" d="M561.8,53.7v-10h-12.2V28.5l-0.4,0.1l-11.5,3.4l-0.3,0.1v11.6h-18.2v-6.5c0-3,0.7-5.3,2-6.8s3.3-2.2,5.7-2.2
			c1.7,0,3.4,0.4,5.4,1.2l0.5,0.3V19.2l-0.3-0.1c-1.7-0.6-3.9-0.9-6.8-0.9c-3.6,0-6.8,0.8-9.7,2.2c-2.9,1.6-5,3.7-6.6,6.6
			c-1.6,2.8-2.4,6-2.4,9.6v7.2h-8.5v9.9h8.5v41.7h12.2V53.7h18.2v26.5c0,10.9,5.1,16.4,15.3,16.4c1.7,0,3.4-0.3,5.1-0.6
			c1.8-0.4,3.1-0.8,3.8-1.2l0.1-0.1v-10l-0.5,0.4c-0.7,0.5-1.4,0.8-2.5,1.1c-0.9,0.3-1.8,0.4-2.4,0.4c-2.4,0-4.1-0.6-5.3-2
			c-1.1-1.3-1.7-3.4-1.7-6.6V53.7L561.8,53.7L561.8,53.7z"/>
	</g>
	<path class="st1" d="M0-0.5h57v57H0V-0.5z"/>
	<path class="st2" d="M63-0.5h57v57H63V-0.5z"/>
	<path class="st3" d="M0,62.5h57v57H0V62.5z"/>
	<path class="st4" d="M63,62.5h57v57H63V62.5z"/>
</g>
</svg>
